<svg width="74" height="79" viewBox="0 0 74 79" fill="none" xmlns="http://www.w3.org/2000/svg">
<path d="M0.518438 78.5H0.502821C0.748687 56.7239 17.0333 39.2255 37 39.2255C56.9667 39.2255 73.2513 56.7239 73.4972 78.5H73.4816H73.4621H73.4423H73.4221H73.4016H73.3807H73.3595H73.338H73.3161H73.2938H73.2712H73.2483H73.225H73.2014H73.1774H73.1531H73.1285H73.1035H73.0782H73.0525H73.0265H73.0002H72.9735H72.9465H72.9192H72.8915H72.8635H72.8351H72.8065H72.7774H72.7481H72.7184H72.6884H72.6581H72.6274H72.5964H72.565H72.5334H72.5014H72.4691H72.4364H72.4035H72.3702H72.3366H72.3026H72.2683H72.2337H72.1988H72.1636H72.128H72.0921H72.0559H72.0194H71.9826H71.9454H71.9079H71.8701H71.832H71.7936H71.7549H71.7158H71.6764H71.6367H71.5967H71.5564H71.5158H71.4748H71.4336H71.392H71.3501H71.3079H71.2654H71.2226H71.1795H71.1361H71.0924H71.0483H71.004H70.9593H70.9144H70.8691H70.8236H70.7777H70.7315H70.6851H70.6383H70.5912H70.5439H70.4962H70.4482H70.4H70.3514H70.3025H70.2534H70.2039H70.1542H70.1041H70.0538H70.0032H69.9522H69.901H69.8495H69.7977H69.7456H69.6932H69.6405H69.5876H69.5343H69.4808H69.4269H69.3728H69.3184H69.2637H69.2087H69.1535H69.0979H69.0421H68.986H68.9296H68.8729H68.8159H68.7587H68.7012H68.6434H68.5853H68.5269H68.4683H68.4094H68.3502H68.2907H68.231H68.171H68.1107H68.0501H67.9893H67.9282H67.8668H67.8051H67.7432H67.681H67.6185H67.5558H67.4928H67.4295H67.3659H67.3021H67.238H67.1737H67.1091H67.0442H66.9791H66.9137H66.848H66.7821H66.7159H66.6494H66.5827H66.5157H66.4485H66.381H66.3132H66.2452H66.1769H66.1084H66.0396H65.9706H65.9013H65.8317H65.7619H65.6919H65.6216H65.551H65.4802H65.4091H65.3378H65.2662H65.1944H65.1223H65.05H64.9775H64.9046H64.8316H64.7583H64.6847H64.6109H64.5369H64.4626H64.3881H64.3133H64.2383H64.163H64.0875H64.0118H63.9358H63.8596H63.7831H63.7064H63.6295H63.5523H63.4749H63.3973H63.3194H63.2413H63.163H63.0844H63.0056H62.9265H62.8472H62.7677H62.688H62.608H62.5278H62.4474H62.3667H62.2858H62.2047H62.1234H62.0418H61.96H61.878H61.7957H61.7132H61.6306H61.5476H61.4645H61.3811H61.2976H61.2137H61.1297H61.0455H60.961H60.8763H60.7914H60.7063H60.621H60.5354H60.4497H60.3637H60.2775H60.1911H60.1045H60.0176H59.9306H59.8433H59.7558H59.6682H59.5803H59.4922H59.4039H59.3153H59.2266H59.1377H59.0485H58.9592H58.8697H58.7799H58.6899H58.5998H58.5094H58.4188H58.3281H58.2371H58.1459H58.0545H57.963H57.8712H57.7792H57.6871H57.5947H57.5021H57.4094H57.3164H57.2232H57.1299H57.0364H56.9426H56.8487H56.7546H56.6603H56.5658H56.4711H56.3762H56.2811H56.1858H56.0904H55.9948H55.8989H55.8029H55.7067H55.6103H55.5138H55.417H55.3201H55.2229H55.1256H55.0282H54.9305H54.8326H54.7346H54.6364H54.538H54.4394H54.3407H54.2418H54.1427H54.0434H53.9439H53.8443H53.7445H53.6445H53.5444H53.444H53.3436H53.2429H53.142H53.041H52.9398H52.8385H52.737H52.6353H52.5334H52.4314H52.3292H52.2269H52.1243H52.0216H51.9188H51.8158H51.7126H51.6092H51.5057H51.4021H51.2982H51.1943H51.0901H50.9858H50.8813H50.7767H50.6719H50.567H50.4619H50.3566H50.2512H50.1456H50.0399H49.934H49.828H49.7218H49.6155H49.509H49.4024H49.2956H49.1887H49.0816H48.9744H48.867H48.7594H48.6518H48.544H48.436H48.3279H48.2196H48.1112H48.0027H47.894H47.7851H47.6762H47.5671H47.4578H47.3484H47.2389H47.1292H47.0194H46.9094H46.7994H46.6891H46.5788H46.4683H46.3576H46.2469H46.136H46.0249H45.9138H45.8025H45.691H45.5795H45.4678H45.356H45.244H45.1319H45.0197H44.9074H44.7949H44.6823H44.5696H44.4568H44.3438H44.2307H44.1175H44.0042H43.8907H43.7771H43.6634H43.5496H43.4357H43.3216H43.2074H43.0931H42.9787H42.8642H42.7495H42.6347H42.5198H42.4048H42.2897H42.1745H42.0592H41.9437H41.8281H41.7124H41.5967H41.4807H41.3647H41.2486H41.1324H41.016H40.8996H40.783H40.6664H40.5496H40.4327H40.3158H40.1987H40.0815H39.9642H39.8468H39.7293H39.6117H39.494H39.3762H39.2583H39.1403H39.0222H38.904H38.7857H38.6673H38.5488H38.4303H38.3116H38.1928H38.0739H37.955H37.8359H37.7168H37.5975H37.4782H37.3588H37.2393H37.1197H37H36.8803H36.7607H36.6412H36.5218H36.4025H36.2832H36.1641H36.045H35.9261H35.8072H35.6884H35.5697H35.4512H35.3327H35.2143H35.096H34.9778H34.8597H34.7417H34.6238H34.506H34.3883H34.2707H34.1532H34.0358H33.9185H33.8013H33.6842H33.5673H33.4504H33.3336H33.217H33.1004H32.984H32.8676H32.7514H32.6353H32.5193H32.4033H32.2876H32.1719H32.0563H31.9408H31.8255H31.7103H31.5952H31.4802H31.3653H31.2505H31.1358H31.0213H30.9069H30.7926H30.6784H30.5643H30.4504H30.3366H30.2229H30.1093H29.9958H29.8825H29.7693H29.6562H29.5432H29.4304H29.3177H29.2051H29.0926H28.9803H28.8681H28.756H28.644H28.5322H28.4205H28.309H28.1975H28.0862H27.9751H27.864H27.7531H27.6424H27.5317H27.4212H27.3109H27.2006H27.0906H26.9806H26.8708H26.7611H26.6516H26.5422H26.4329H26.3238H26.2149H26.106H25.9973H25.8888H25.7804H25.6721H25.564H25.456H25.3482H25.2406H25.133H25.0256H24.9184H24.8113H24.7044H24.5976H24.491H24.3845H24.2782H24.172H24.066H23.9601H23.8544H23.7488H23.6434H23.5381H23.433H23.3281H23.2233H23.1187H23.0142H22.9099H22.8057H22.7018H22.5979H22.4943H22.3908H22.2874H22.1842H22.0812H21.9784H21.8757H21.7731H21.6708H21.5686H21.4666H21.3647H21.263H21.1615H21.0602H20.959H20.858H20.7571H20.6564H20.556H20.4556H20.3555H20.2555H20.1557H20.0561H19.9566H19.8573H19.7582H19.6593H19.5606H19.462H19.3636H19.2654H19.1674H19.0695H18.9718H18.8744H18.7771H18.6799H18.583H18.4862H18.3897H18.2933H18.1971H18.1011H18.0052H17.9096H17.8142H17.7189H17.6238H17.5289H17.4342H17.3397H17.2454H17.1513H17.0574H16.9636H16.8701H16.7768H16.6836H16.5906H16.4979H16.4053H16.3129H16.2208H16.1288H16.037H15.9455H15.8541H15.7629H15.6719H15.5812H15.4906H15.4002H15.3101H15.2201H15.1303H15.0408H14.9514H14.8623H14.7734H14.6847H14.5961H14.5078H14.4197H14.3318H14.2442H14.1567H14.0694H13.9824H13.8955H13.8089H13.7225H13.6363H13.5503H13.4646H13.379H13.2937H13.2086H13.1237H13.039H12.9545H12.8703H12.7863H12.7024H12.6189H12.5355H12.4524H12.3694H12.2868H12.2043H12.122H12.04H11.9582H11.8766H11.7953H11.7142H11.6333H11.5526H11.4722H11.392H11.312H11.2323H11.1528H11.0735H10.9944H10.9156H10.837H10.7587H10.6806H10.6027H10.5251H10.4477H10.3705H10.2936H10.2169H10.1404H10.0642H9.98821H9.91247H9.83697H9.76172H9.6867H9.61193H9.5374H9.46311H9.38907H9.31528H9.24172H9.16842H9.09536H9.02255H8.94998H8.87766H8.8056H8.73378H8.66221H8.59089H8.51982H8.449H8.37844H8.30812H8.23806H8.16826H8.09871H8.02941H7.96037H7.89159H7.82306H7.75479H7.68677H7.61902H7.55152H7.48428H7.41731H7.35059H7.28413H7.21794H7.15201H7.08634H7.02093H6.95579H6.89092H6.8263H6.76196H6.69788H6.63406H6.57052H6.50724H6.44423H6.38149H6.31902H6.25682H6.19489H6.13323H6.07184H6.01073H5.94989H5.88932H5.82903H5.76901H5.70926H5.6498H5.5906H5.53169H5.47305H5.41469H5.35661H5.29881H5.24129H5.18405H5.12709H5.07041H5.01402H4.95791H4.90208H4.84653H4.79127H4.73629H4.6816H4.62719H4.57308H4.51924H4.4657H4.41244H4.35948H4.3068H4.25441H4.20232H4.15051H4.099H4.04778H3.99685H3.94622H3.89587H3.84583H3.79608H3.74662H3.69746H3.6486H3.60004H3.55177H3.5038H3.45613H3.40876H3.36169H3.31493H3.26846H3.22229H3.17643H3.13087H3.08562H3.04067H2.99602H2.95168H2.90764H2.86391H2.82049H2.77738H2.73457H2.69208H2.64989H2.60801H2.56644H2.52519H2.48424H2.44361H2.40329H2.36328H2.32359H2.28421H2.24515H2.2064H2.16797H2.12986H2.09206H2.05458H2.01742H1.98058H1.94405H1.90785H1.87197H1.83641H1.80117H1.76626H1.73166H1.69739H1.66345H1.62983H1.59653H1.56356H1.53092H1.4986H1.46661H1.43495H1.40362H1.37261H1.34194H1.3116H1.28159H1.25191H1.22256H1.19354H1.16486H1.13651H1.10849H1.08081H1.05347H1.02646H0.99979H0.973455H0.947458H0.921799H0.89648H0.871499H0.846859H0.822559H0.7986H0.774983H0.751709H0.728777H0.706188H0.683944H0.662043H0.640489H0.619279H0.598416H0.5779H0.557731H0.53791H0.518438Z" fill="white" stroke="black"/>
<path d="M55.8043 19.3627C55.8043 29.7627 47.0432 38.2255 36.1956 38.2255C25.348 38.2255 16.5869 29.7627 16.5869 19.3627C16.5869 8.96279 25.348 0.5 36.1956 0.5C47.0432 0.5 55.8043 8.96279 55.8043 19.3627Z" fill="white" stroke="black"/>
</svg>
